<mxfile host="Electron" modified="2023-06-25T09:21:49.956Z" agent="Mozilla/5.0 (Windows NT 10.0; Win64; x64) AppleWebKit/537.36 (KHTML, like Gecko) draw.io/21.2.8 Chrome/112.0.5615.165 Electron/24.2.0 Safari/537.36" etag="y1J7dV9CZuIZTXwF-tFJ" version="21.2.8" type="device">
  <diagram id="-bSgkTpMWi6MPmN9Afmh" name="Pagina-1">
    <mxGraphModel dx="807" dy="457" grid="1" gridSize="10" guides="1" tooltips="1" connect="1" arrows="1" fold="1" page="1" pageScale="1" pageWidth="827" pageHeight="1169" math="0" shadow="0">
      <root>
        <mxCell id="0" />
        <mxCell id="1" parent="0" />
        <mxCell id="62xOWvLGI5wn2MmwQ-Y3-9" style="edgeStyle=orthogonalEdgeStyle;rounded=0;orthogonalLoop=1;jettySize=auto;html=1;exitX=0.5;exitY=1;exitDx=0;exitDy=0;entryX=0.5;entryY=0;entryDx=0;entryDy=0;" parent="1" source="RYsrsAyEsL14hpYfB4Pu-1" target="62xOWvLGI5wn2MmwQ-Y3-8" edge="1">
          <mxGeometry relative="1" as="geometry" />
        </mxCell>
        <mxCell id="RYsrsAyEsL14hpYfB4Pu-1" value="" style="ellipse;whiteSpace=wrap;html=1;aspect=fixed;fillColor=#1A1A1A;" parent="1" vertex="1">
          <mxGeometry x="334" y="30" width="40" height="40" as="geometry" />
        </mxCell>
        <mxCell id="RYsrsAyEsL14hpYfB4Pu-4" value="" style="endArrow=classic;html=1;rounded=0;fontSize=9;exitX=0.5;exitY=1;exitDx=0;exitDy=0;" parent="1" edge="1">
          <mxGeometry width="50" height="50" relative="1" as="geometry">
            <mxPoint x="354" y="160" as="sourcePoint" />
            <mxPoint x="354" y="200" as="targetPoint" />
          </mxGeometry>
        </mxCell>
        <mxCell id="RYsrsAyEsL14hpYfB4Pu-5" value="" style="rounded=0;whiteSpace=wrap;html=1;fontSize=9;fillColor=#FFFFFF;strokeColor=#1A1A1A;" parent="1" vertex="1">
          <mxGeometry x="314" y="200" width="76" height="40" as="geometry" />
        </mxCell>
        <mxCell id="RYsrsAyEsL14hpYfB4Pu-6" value="user logs in&amp;nbsp;" style="text;html=1;strokeColor=none;fillColor=none;align=center;verticalAlign=middle;whiteSpace=wrap;rounded=0;fontSize=9;" parent="1" vertex="1">
          <mxGeometry x="314" y="200" width="80" height="40" as="geometry" />
        </mxCell>
        <mxCell id="RYsrsAyEsL14hpYfB4Pu-9" value="" style="endArrow=classic;html=1;rounded=0;fontSize=9;exitX=0.5;exitY=1;exitDx=0;exitDy=0;entryX=0.5;entryY=0;entryDx=0;entryDy=0;" parent="1" target="62xOWvLGI5wn2MmwQ-Y3-2" edge="1">
          <mxGeometry width="50" height="50" relative="1" as="geometry">
            <mxPoint x="353.71000000000004" y="240" as="sourcePoint" />
            <mxPoint x="354" y="300" as="targetPoint" />
          </mxGeometry>
        </mxCell>
        <mxCell id="KVwFOPRxgbOgQQLn7fkw-41" value="" style="endArrow=classic;html=1;rounded=0;fontSize=9;exitX=0.5;exitY=1;exitDx=0;exitDy=0;entryX=0.5;entryY=0;entryDx=0;entryDy=0;" parent="1" edge="1">
          <mxGeometry width="50" height="50" relative="1" as="geometry">
            <mxPoint x="119.00000000000006" y="810" as="sourcePoint" />
            <mxPoint x="119.29000000000002" y="870" as="targetPoint" />
          </mxGeometry>
        </mxCell>
        <mxCell id="KVwFOPRxgbOgQQLn7fkw-42" value="" style="ellipse;whiteSpace=wrap;html=1;aspect=fixed;fillColor=#1A1A1A;" parent="1" vertex="1">
          <mxGeometry x="105" y="875" width="30" height="30" as="geometry" />
        </mxCell>
        <mxCell id="KVwFOPRxgbOgQQLn7fkw-43" value="" style="ellipse;whiteSpace=wrap;html=1;aspect=fixed;fillColor=none;" parent="1" vertex="1">
          <mxGeometry x="100" y="870" width="40" height="40" as="geometry" />
        </mxCell>
        <mxCell id="62xOWvLGI5wn2MmwQ-Y3-1" value="Use Case: add recipes" style="text;html=1;align=center;verticalAlign=middle;resizable=0;points=[];autosize=1;strokeColor=none;fillColor=none;" parent="1" vertex="1">
          <mxGeometry x="284" width="140" height="30" as="geometry" />
        </mxCell>
        <mxCell id="62xOWvLGI5wn2MmwQ-Y3-3" style="edgeStyle=orthogonalEdgeStyle;rounded=0;orthogonalLoop=1;jettySize=auto;html=1;exitX=1;exitY=0.5;exitDx=0;exitDy=0;entryX=1;entryY=0.5;entryDx=0;entryDy=0;" parent="1" source="62xOWvLGI5wn2MmwQ-Y3-2" target="62xOWvLGI5wn2MmwQ-Y3-8" edge="1">
          <mxGeometry relative="1" as="geometry">
            <mxPoint x="560" y="450" as="targetPoint" />
            <Array as="points">
              <mxPoint x="540" y="330" />
              <mxPoint x="540" y="135" />
            </Array>
          </mxGeometry>
        </mxCell>
        <mxCell id="62xOWvLGI5wn2MmwQ-Y3-4" style="edgeStyle=orthogonalEdgeStyle;rounded=0;orthogonalLoop=1;jettySize=auto;html=1;exitX=0;exitY=0.5;exitDx=0;exitDy=0;" parent="1" source="62xOWvLGI5wn2MmwQ-Y3-2" target="62xOWvLGI5wn2MmwQ-Y3-19" edge="1">
          <mxGeometry relative="1" as="geometry">
            <mxPoint x="160" y="390" as="targetPoint" />
            <Array as="points">
              <mxPoint x="200" y="330" />
            </Array>
          </mxGeometry>
        </mxCell>
        <mxCell id="62xOWvLGI5wn2MmwQ-Y3-2" value="" style="rhombus;whiteSpace=wrap;html=1;" parent="1" vertex="1">
          <mxGeometry x="329" y="305" width="50" height="50" as="geometry" />
        </mxCell>
        <mxCell id="62xOWvLGI5wn2MmwQ-Y3-5" value="[correct credentials]" style="text;html=1;align=center;verticalAlign=middle;resizable=0;points=[];autosize=1;strokeColor=none;fillColor=none;" parent="1" vertex="1">
          <mxGeometry x="204" y="305" width="130" height="30" as="geometry" />
        </mxCell>
        <mxCell id="62xOWvLGI5wn2MmwQ-Y3-6" value="[incorrect credentials]" style="text;html=1;align=center;verticalAlign=middle;resizable=0;points=[];autosize=1;strokeColor=none;fillColor=none;" parent="1" vertex="1">
          <mxGeometry x="380" y="305" width="140" height="30" as="geometry" />
        </mxCell>
        <mxCell id="62xOWvLGI5wn2MmwQ-Y3-8" value="" style="rhombus;whiteSpace=wrap;html=1;" parent="1" vertex="1">
          <mxGeometry x="329" y="110" width="50" height="50" as="geometry" />
        </mxCell>
        <mxCell id="62xOWvLGI5wn2MmwQ-Y3-16" value="" style="rounded=0;whiteSpace=wrap;html=1;fontSize=9;fillColor=#FFFFFF;strokeColor=#1A1A1A;" parent="1" vertex="1">
          <mxGeometry x="500" y="265" width="76" height="40" as="geometry" />
        </mxCell>
        <mxCell id="62xOWvLGI5wn2MmwQ-Y3-17" value="display error message" style="text;html=1;strokeColor=none;fillColor=none;align=center;verticalAlign=middle;whiteSpace=wrap;rounded=0;fontSize=9;" parent="1" vertex="1">
          <mxGeometry x="500" y="265" width="80" height="40" as="geometry" />
        </mxCell>
        <mxCell id="62xOWvLGI5wn2MmwQ-Y3-18" value="" style="rounded=0;whiteSpace=wrap;html=1;fontSize=9;fillColor=#FFFFFF;strokeColor=#1A1A1A;" parent="1" vertex="1">
          <mxGeometry x="170" y="360" width="70" height="40" as="geometry" />
        </mxCell>
        <mxCell id="62xOWvLGI5wn2MmwQ-Y3-20" style="edgeStyle=orthogonalEdgeStyle;rounded=0;orthogonalLoop=1;jettySize=auto;html=1;exitX=0.5;exitY=1;exitDx=0;exitDy=0;" parent="1" source="62xOWvLGI5wn2MmwQ-Y3-19" edge="1">
          <mxGeometry relative="1" as="geometry">
            <mxPoint x="205" y="440" as="targetPoint" />
          </mxGeometry>
        </mxCell>
        <mxCell id="62xOWvLGI5wn2MmwQ-Y3-19" value="&amp;nbsp;ask system to add new recipe" style="text;html=1;strokeColor=none;fillColor=none;align=center;verticalAlign=middle;whiteSpace=wrap;rounded=0;fontSize=9;" parent="1" vertex="1">
          <mxGeometry x="170" y="360" width="70" height="40" as="geometry" />
        </mxCell>
        <mxCell id="62xOWvLGI5wn2MmwQ-Y3-21" value="" style="rounded=0;whiteSpace=wrap;html=1;fontSize=9;fillColor=#FFFFFF;strokeColor=#1A1A1A;" parent="1" vertex="1">
          <mxGeometry x="170" y="440" width="70" height="40" as="geometry" />
        </mxCell>
        <mxCell id="62xOWvLGI5wn2MmwQ-Y3-27" style="edgeStyle=orthogonalEdgeStyle;rounded=0;orthogonalLoop=1;jettySize=auto;html=1;" parent="1" source="62xOWvLGI5wn2MmwQ-Y3-22" target="62xOWvLGI5wn2MmwQ-Y3-26" edge="1">
          <mxGeometry relative="1" as="geometry" />
        </mxCell>
        <mxCell id="62xOWvLGI5wn2MmwQ-Y3-22" value="*enter recipe" style="text;html=1;strokeColor=none;fillColor=none;align=center;verticalAlign=middle;whiteSpace=wrap;rounded=0;fontSize=9;" parent="1" vertex="1">
          <mxGeometry x="170" y="440" width="70" height="40" as="geometry" />
        </mxCell>
        <mxCell id="62xOWvLGI5wn2MmwQ-Y3-25" value="" style="rounded=0;whiteSpace=wrap;html=1;fontSize=9;fillColor=#FFFFFF;strokeColor=#1A1A1A;" parent="1" vertex="1">
          <mxGeometry x="170" y="520" width="70" height="40" as="geometry" />
        </mxCell>
        <mxCell id="62xOWvLGI5wn2MmwQ-Y3-29" style="edgeStyle=orthogonalEdgeStyle;rounded=0;orthogonalLoop=1;jettySize=auto;html=1;exitX=0.5;exitY=1;exitDx=0;exitDy=0;entryX=0.5;entryY=0;entryDx=0;entryDy=0;" parent="1" source="62xOWvLGI5wn2MmwQ-Y3-26" target="62xOWvLGI5wn2MmwQ-Y3-28" edge="1">
          <mxGeometry relative="1" as="geometry" />
        </mxCell>
        <mxCell id="62xOWvLGI5wn2MmwQ-Y3-26" value="verify recipe" style="text;html=1;strokeColor=none;fillColor=none;align=center;verticalAlign=middle;whiteSpace=wrap;rounded=0;fontSize=9;" parent="1" vertex="1">
          <mxGeometry x="170" y="520" width="70" height="40" as="geometry" />
        </mxCell>
        <mxCell id="62xOWvLGI5wn2MmwQ-Y3-30" style="edgeStyle=orthogonalEdgeStyle;rounded=0;orthogonalLoop=1;jettySize=auto;html=1;exitX=1;exitY=0.5;exitDx=0;exitDy=0;entryX=1;entryY=0.5;entryDx=0;entryDy=0;" parent="1" source="62xOWvLGI5wn2MmwQ-Y3-28" target="62xOWvLGI5wn2MmwQ-Y3-26" edge="1">
          <mxGeometry relative="1" as="geometry">
            <mxPoint x="280" y="680" as="targetPoint" />
            <Array as="points">
              <mxPoint x="280" y="610" />
              <mxPoint x="280" y="680" />
              <mxPoint x="340" y="680" />
              <mxPoint x="340" y="540" />
            </Array>
          </mxGeometry>
        </mxCell>
        <mxCell id="62xOWvLGI5wn2MmwQ-Y3-31" style="edgeStyle=orthogonalEdgeStyle;rounded=0;orthogonalLoop=1;jettySize=auto;html=1;exitX=0;exitY=0.5;exitDx=0;exitDy=0;" parent="1" source="62xOWvLGI5wn2MmwQ-Y3-28" edge="1">
          <mxGeometry relative="1" as="geometry">
            <mxPoint x="120" y="680" as="targetPoint" />
          </mxGeometry>
        </mxCell>
        <mxCell id="62xOWvLGI5wn2MmwQ-Y3-28" value="" style="rhombus;whiteSpace=wrap;html=1;" parent="1" vertex="1">
          <mxGeometry x="180" y="585" width="50" height="50" as="geometry" />
        </mxCell>
        <mxCell id="62xOWvLGI5wn2MmwQ-Y3-32" value="&lt;font style=&quot;font-size: 9px;&quot;&gt;[valid recipe]&lt;/font&gt;" style="text;html=1;align=center;verticalAlign=middle;resizable=0;points=[];autosize=1;strokeColor=none;fillColor=none;" parent="1" vertex="1">
          <mxGeometry x="115" y="585" width="70" height="30" as="geometry" />
        </mxCell>
        <mxCell id="62xOWvLGI5wn2MmwQ-Y3-33" value="[invalid recipe]" style="text;html=1;align=center;verticalAlign=middle;resizable=0;points=[];autosize=1;strokeColor=none;fillColor=none;fontSize=9;" parent="1" vertex="1">
          <mxGeometry x="215" y="590" width="80" height="20" as="geometry" />
        </mxCell>
        <mxCell id="62xOWvLGI5wn2MmwQ-Y3-34" value="" style="rounded=0;whiteSpace=wrap;html=1;fontSize=9;fillColor=#FFFFFF;strokeColor=#1A1A1A;" parent="1" vertex="1">
          <mxGeometry x="10" y="720" width="70" height="40" as="geometry" />
        </mxCell>
        <mxCell id="62xOWvLGI5wn2MmwQ-Y3-35" value="save recipe" style="text;html=1;strokeColor=none;fillColor=none;align=center;verticalAlign=middle;whiteSpace=wrap;rounded=0;fontSize=9;" parent="1" vertex="1">
          <mxGeometry x="10" y="720" width="70" height="40" as="geometry" />
        </mxCell>
        <mxCell id="62xOWvLGI5wn2MmwQ-Y3-36" value="" style="rounded=0;whiteSpace=wrap;html=1;fontSize=9;fillColor=#FFFFFF;strokeColor=#1A1A1A;" parent="1" vertex="1">
          <mxGeometry x="310" y="595" width="76" height="40" as="geometry" />
        </mxCell>
        <mxCell id="62xOWvLGI5wn2MmwQ-Y3-37" value="display error message" style="text;html=1;strokeColor=none;fillColor=none;align=center;verticalAlign=middle;whiteSpace=wrap;rounded=0;fontSize=9;" parent="1" vertex="1">
          <mxGeometry x="310" y="595" width="80" height="40" as="geometry" />
        </mxCell>
        <mxCell id="62xOWvLGI5wn2MmwQ-Y3-38" value="" style="ellipse;whiteSpace=wrap;html=1;aspect=fixed;fillColor=#1A1A1A;" parent="1" vertex="1">
          <mxGeometry x="590" y="510" width="40" height="40" as="geometry" />
        </mxCell>
        <mxCell id="62xOWvLGI5wn2MmwQ-Y3-39" value="*enter recipe" style="text;html=1;align=center;verticalAlign=middle;resizable=0;points=[];autosize=1;strokeColor=none;fillColor=none;fontSize=9;" parent="1" vertex="1">
          <mxGeometry x="576" y="490" width="70" height="20" as="geometry" />
        </mxCell>
        <mxCell id="62xOWvLGI5wn2MmwQ-Y3-40" style="edgeStyle=orthogonalEdgeStyle;rounded=0;orthogonalLoop=1;jettySize=auto;html=1;exitX=0.5;exitY=1;exitDx=0;exitDy=0;entryX=0.5;entryY=0;entryDx=0;entryDy=0;" parent="1" edge="1">
          <mxGeometry relative="1" as="geometry">
            <mxPoint x="609.66" y="550" as="sourcePoint" />
            <mxPoint x="609.66" y="590" as="targetPoint" />
          </mxGeometry>
        </mxCell>
        <mxCell id="62xOWvLGI5wn2MmwQ-Y3-41" value="" style="rounded=0;whiteSpace=wrap;html=1;fontSize=9;fillColor=#FFFFFF;strokeColor=#1A1A1A;" parent="1" vertex="1">
          <mxGeometry x="576" y="590" width="76" height="40" as="geometry" />
        </mxCell>
        <mxCell id="62xOWvLGI5wn2MmwQ-Y3-46" style="edgeStyle=orthogonalEdgeStyle;rounded=0;orthogonalLoop=1;jettySize=auto;html=1;exitX=0.5;exitY=1;exitDx=0;exitDy=0;entryX=0.5;entryY=0;entryDx=0;entryDy=0;fontSize=9;" parent="1" source="62xOWvLGI5wn2MmwQ-Y3-42" target="62xOWvLGI5wn2MmwQ-Y3-44" edge="1">
          <mxGeometry relative="1" as="geometry" />
        </mxCell>
        <mxCell id="62xOWvLGI5wn2MmwQ-Y3-42" value="insert recipe name" style="text;html=1;strokeColor=none;fillColor=none;align=center;verticalAlign=middle;whiteSpace=wrap;rounded=0;fontSize=9;" parent="1" vertex="1">
          <mxGeometry x="576" y="590" width="80" height="40" as="geometry" />
        </mxCell>
        <mxCell id="62xOWvLGI5wn2MmwQ-Y3-43" value="" style="rounded=0;whiteSpace=wrap;html=1;fontSize=9;fillColor=#FFFFFF;strokeColor=#1A1A1A;" parent="1" vertex="1">
          <mxGeometry x="576" y="670" width="76" height="40" as="geometry" />
        </mxCell>
        <mxCell id="62xOWvLGI5wn2MmwQ-Y3-49" style="edgeStyle=orthogonalEdgeStyle;rounded=0;orthogonalLoop=1;jettySize=auto;html=1;exitX=0.5;exitY=1;exitDx=0;exitDy=0;entryX=0.526;entryY=0.008;entryDx=0;entryDy=0;entryPerimeter=0;fontSize=9;" parent="1" source="62xOWvLGI5wn2MmwQ-Y3-44" target="62xOWvLGI5wn2MmwQ-Y3-48" edge="1">
          <mxGeometry relative="1" as="geometry" />
        </mxCell>
        <mxCell id="62xOWvLGI5wn2MmwQ-Y3-44" value="insert ingredients with quantity" style="text;html=1;strokeColor=none;fillColor=none;align=center;verticalAlign=middle;whiteSpace=wrap;rounded=0;fontSize=9;" parent="1" vertex="1">
          <mxGeometry x="576" y="670" width="80" height="40" as="geometry" />
        </mxCell>
        <mxCell id="62xOWvLGI5wn2MmwQ-Y3-47" value="" style="rounded=0;whiteSpace=wrap;html=1;fontSize=9;fillColor=#FFFFFF;strokeColor=#1A1A1A;" parent="1" vertex="1">
          <mxGeometry x="574" y="760" width="76" height="40" as="geometry" />
        </mxCell>
        <mxCell id="62xOWvLGI5wn2MmwQ-Y3-48" value="insert description" style="text;html=1;strokeColor=none;fillColor=none;align=center;verticalAlign=middle;whiteSpace=wrap;rounded=0;fontSize=9;" parent="1" vertex="1">
          <mxGeometry x="574" y="760" width="80" height="40" as="geometry" />
        </mxCell>
        <mxCell id="62xOWvLGI5wn2MmwQ-Y3-50" value="" style="endArrow=none;html=1;rounded=0;fontSize=9;strokeWidth=4;" parent="1" edge="1">
          <mxGeometry width="50" height="50" relative="1" as="geometry">
            <mxPoint x="40" y="680" as="sourcePoint" />
            <mxPoint x="200" y="680" as="targetPoint" />
          </mxGeometry>
        </mxCell>
        <mxCell id="62xOWvLGI5wn2MmwQ-Y3-51" value="" style="rounded=0;whiteSpace=wrap;html=1;fontSize=9;fillColor=#FFFFFF;strokeColor=#1A1A1A;" parent="1" vertex="1">
          <mxGeometry x="160" y="720" width="70" height="40" as="geometry" />
        </mxCell>
        <mxCell id="62xOWvLGI5wn2MmwQ-Y3-52" value="&lt;font style=&quot;font-size: 7px;&quot;&gt;retrieve new recipe information and show my recipes on screen&lt;/font&gt;" style="text;html=1;strokeColor=none;fillColor=none;align=center;verticalAlign=middle;whiteSpace=wrap;rounded=0;fontSize=9;" parent="1" vertex="1">
          <mxGeometry x="160" y="720" width="70" height="40" as="geometry" />
        </mxCell>
        <mxCell id="62xOWvLGI5wn2MmwQ-Y3-53" value="" style="endArrow=classic;html=1;rounded=0;strokeWidth=1;fontSize=9;entryX=0.714;entryY=0;entryDx=0;entryDy=0;entryPerimeter=0;" parent="1" target="62xOWvLGI5wn2MmwQ-Y3-35" edge="1">
          <mxGeometry width="50" height="50" relative="1" as="geometry">
            <mxPoint x="60" y="680" as="sourcePoint" />
            <mxPoint x="400" y="670" as="targetPoint" />
          </mxGeometry>
        </mxCell>
        <mxCell id="62xOWvLGI5wn2MmwQ-Y3-54" value="" style="endArrow=classic;html=1;rounded=0;strokeWidth=1;fontSize=9;entryX=0.714;entryY=0;entryDx=0;entryDy=0;entryPerimeter=0;" parent="1" edge="1">
          <mxGeometry width="50" height="50" relative="1" as="geometry">
            <mxPoint x="180.01999999999998" y="680" as="sourcePoint" />
            <mxPoint x="180" y="720" as="targetPoint" />
          </mxGeometry>
        </mxCell>
        <mxCell id="62xOWvLGI5wn2MmwQ-Y3-55" value="" style="endArrow=none;html=1;rounded=0;fontSize=9;strokeWidth=4;" parent="1" edge="1">
          <mxGeometry width="50" height="50" relative="1" as="geometry">
            <mxPoint x="40" y="810" as="sourcePoint" />
            <mxPoint x="200" y="810" as="targetPoint" />
          </mxGeometry>
        </mxCell>
        <mxCell id="62xOWvLGI5wn2MmwQ-Y3-56" value="" style="endArrow=classic;html=1;rounded=0;strokeWidth=1;fontSize=9;" parent="1" edge="1">
          <mxGeometry width="50" height="50" relative="1" as="geometry">
            <mxPoint x="60.019999999999996" y="760" as="sourcePoint" />
            <mxPoint x="60" y="810" as="targetPoint" />
          </mxGeometry>
        </mxCell>
        <mxCell id="62xOWvLGI5wn2MmwQ-Y3-57" value="" style="endArrow=classic;html=1;rounded=0;strokeWidth=1;fontSize=9;" parent="1" edge="1">
          <mxGeometry width="50" height="50" relative="1" as="geometry">
            <mxPoint x="180.01999999999998" y="760" as="sourcePoint" />
            <mxPoint x="180" y="810" as="targetPoint" />
          </mxGeometry>
        </mxCell>
        <mxCell id="62xOWvLGI5wn2MmwQ-Y3-58" value="" style="endArrow=classic;html=1;rounded=0;fontSize=9;exitX=0.5;exitY=1;exitDx=0;exitDy=0;entryX=0.5;entryY=0;entryDx=0;entryDy=0;" parent="1" edge="1">
          <mxGeometry width="50" height="50" relative="1" as="geometry">
            <mxPoint x="615" y="800" as="sourcePoint" />
            <mxPoint x="615.29" y="860" as="targetPoint" />
          </mxGeometry>
        </mxCell>
        <mxCell id="62xOWvLGI5wn2MmwQ-Y3-59" value="" style="ellipse;whiteSpace=wrap;html=1;aspect=fixed;fillColor=#1A1A1A;" parent="1" vertex="1">
          <mxGeometry x="601" y="865" width="30" height="30" as="geometry" />
        </mxCell>
        <mxCell id="62xOWvLGI5wn2MmwQ-Y3-60" value="" style="ellipse;whiteSpace=wrap;html=1;aspect=fixed;fillColor=none;" parent="1" vertex="1">
          <mxGeometry x="596" y="860" width="40" height="40" as="geometry" />
        </mxCell>
      </root>
    </mxGraphModel>
  </diagram>
</mxfile>
